<?xml version="1.0" encoding="UTF-8" standalone="no"?>
<!-- Generator: Adobe Illustrator 18.0.0, SVG Export Plug-In . SVG Version: 6.00 Build 0)  -->

<svg
   version="1.1"
   id="Layer_1"
   x="0px"
   y="0px"
   viewBox="0 0 1024 1024"
   enable-background="new 0 0 1024 1024"
   xml:space="preserve"
   sodipodi:docname="clustercut_black.svg"
   inkscape:version="1.4.3 (0d15f75042, 2025-12-25)"
   xmlns:inkscape="http://www.inkscape.org/namespaces/inkscape"
   xmlns:sodipodi="http://sodipodi.sourceforge.net/DTD/sodipodi-0.dtd"
   xmlns="http://www.w3.org/2000/svg"
   xmlns:svg="http://www.w3.org/2000/svg"><defs
   id="defs5" /><sodipodi:namedview
   id="namedview5"
   pagecolor="#ffffff"
   bordercolor="#000000"
   borderopacity="0.25"
   inkscape:showpageshadow="2"
   inkscape:pageopacity="0.0"
   inkscape:pagecheckerboard="0"
   inkscape:deskcolor="#d1d1d1"
   inkscape:zoom="1.1328125"
   inkscape:cx="511.55862"
   inkscape:cy="512"
   inkscape:window-width="2560"
   inkscape:window-height="1371"
   inkscape:window-x="0"
   inkscape:window-y="0"
   inkscape:window-maximized="1"
   inkscape:current-layer="Layer_1" />


<g
   id="g5"
   transform="matrix(1.4077398,0,0,1.4077398,-208.76278,-208.69239)">
	<path
   d="m 684.6,577.5 -178,178 c -41.6,41.6 -109,41.6 -150.6,0 L 186.6,586.1 C 145,544.5 145,477.1 186.6,435.5 L 356.3,265.8 c 41.6,-41.6 109,-41.6 150.6,0 v 0 l -49.3,49.3 v 0 c -14.3,-14.3 -37.6,-14.3 -51.9,0 L 235.9,484.8 c -14.3,14.3 -14.3,37.6 0,51.9 l 169.4,169.4 c 14.3,14.3 37.6,14.3 51.9,0 L 576,587.4 c 29.1,-29.1 74.8,-33.2 108.6,-9.9 z"
   id="path2" />
	<path
   d="m 685.3,444.3 v 0 c -31.1,25 -76,22.6 -104.3,-5.6 L 539.7,397.4 589,348 Z"
   id="path3" />
	<path
   d="M 868.5,577.1 687.1,758.4 c -41.2,41.2 -108.1,41.2 -149.3,0 v 0 l 49.4,-49.3 v 0 c 13.9,13.9 36.5,13.9 50.5,0 L 759.3,587.5 c 29.2,-29.2 75,-33.6 109.2,-10.4 z"
   id="path4" />
	<path
   d="m 868.6,445.3 -5.1,3.3 c -31.7,20.9 -73.7,16.6 -100.6,-10.3 L 640.4,315.8 c -14.2,-14.2 -37.1,-14.2 -51.3,0 L 417.2,487.7 c -14.2,14.2 -14.2,37.1 0,51.3 l 86.6,86.6 -49.3,49.4 -82.7,-82.7 c -43.7,-43.7 -43.7,-114.5 0,-158.1 L 535.6,270.4 c 43.7,-43.7 114.5,-43.7 158.1,0 z"
   id="path5" />
</g>
</svg>
